<?xml version="1.0" encoding="UTF-8" standalone="no"?><svg xmlns="http://www.w3.org/2000/svg" xmlns:xlink="http://www.w3.org/1999/xlink" contentScriptType="application/ecmascript" contentStyleType="text/css" height="1479px" preserveAspectRatio="none" style="width:1647px;height:1479px;" version="1.1" viewBox="0 0 1647 1479" width="1647px" zoomAndPan="magnify"><defs><filter height="300%" id="f1jn5unpfao0g0" width="300%" x="-1" y="-1"><feGaussianBlur result="blurOut" stdDeviation="2.0"/><feColorMatrix in="blurOut" result="blurOut2" type="matrix" values="0 0 0 0 0 0 0 0 0 0 0 0 0 0 0 0 0 0 .4 0"/><feOffset dx="4.0" dy="4.0" in="blurOut2" result="blurOut3"/><feBlend in="SourceGraphic" in2="blurOut3" mode="normal"/></filter></defs><g><!--MD5=[ee5e8230e68e644357958932f455d434]
cluster Azure--><path d="M1117.29,999.9099 C1125.2731,979.9713 1143.6383,981.6057 1155.3534,995.7409 C1164.1203,982.2463 1178.3435,985.533 1184.5022,998.6029 C1196.3501,978.6883 1208.5811,978.8725 1221.9605,997.0988 C1232.9301,979.2233 1247.9099,982.8335 1257.2512,998.7969 C1267.5925,983.4127 1280.8969,979.6414 1292.3051,997.6778 C1302.8981,980.7845 1312.8137,982.4151 1324.7353,996.2768 C1335.9947,975.2411 1348.2925,975.5108 1362.6249,993.2759 C1373.6258,977.6011 1383.0705,982.1857 1392.3644,995.0544 C1402.1285,979.4793 1418.0525,975.1969 1428.6452,994.1846 C1440.6414,975.8858 1454.612,974.8623 1465.5358,995.2084 C1476.5082,979.0108 1488.3223,979.7821 1497.2894,997.1078 C1509.5999,979.7462 1523.4549,985.7123 1532.2178,1000.9131 C1539.2372,983.2022 1552.9588,983.1145 1564.9171,995.5572 C1580.4009,978.1546 1598.1442,978.2974 1606,1003 C1607.4302,1002.0225 1608.5951,1002.5626 1608.7299,1004.3017 C1624.6656,1012.445 1629.3727,1027.8887 1611.9117,1039.0868 C1625.3852,1044.5597 1630.1034,1057.6153 1616.8779,1067.719 C1634.1205,1077.9995 1635.2995,1092.4255 1617.6167,1103.4286 C1632.8147,1114.2202 1633.6825,1124.9398 1617.0326,1135.1448 C1628.9375,1145.7134 1625.1435,1158.7338 1611.7694,1164.8188 C1627.0281,1184.0713 1621.467,1195.7039 1599,1202 C1600.9267,1200.539 1602.4369,1201.0259 1602.9679,1203.4321 C1592.4047,1222.1078 1578.7477,1224.7643 1565.0052,1206.7188 C1555.2492,1219.4639 1540.1406,1218.2023 1532.7863,1203.8619 C1525.9903,1219.5799 1511.7951,1221.0724 1501.6823,1207.3684 C1492.0272,1226.515 1475.7091,1222.9453 1465.3952,1208.0711 C1453.8675,1226.4525 1442.1699,1223.1262 1431.3059,1207.4077 C1420.3803,1226.3574 1407.574,1228.9412 1392.6665,1211.6535 C1383.8241,1223.0167 1369.4734,1221.2063 1363.4072,1208.3057 C1352.8959,1225.5804 1340.1717,1227.8037 1326.4293,1211.9076 C1314.1953,1225.2172 1299.9538,1223.3439 1291.6874,1207.2238 C1281.8693,1224.5059 1266.442,1225.9244 1254.324,1209.7959 C1242.7747,1223.6676 1232.6871,1224.3148 1221.1464,1209.7858 C1209.079,1223.4458 1197.1866,1224.404 1187.8345,1206.8848 C1175.241,1219.7988 1162.1655,1219.0499 1152.9059,1202.881 C1137.0727,1224.3999 1115.5715,1220.556 1108,1195 C1111.1672,1196.3841 1112.069,1198.6705 1109.5027,1201.4007 C1085.6869,1188.9006 1085.3302,1165.8135 1106.2707,1150.4731 C1083.4292,1137.2798 1087.4674,1118.0686 1106.6024,1105.1827 C1084.5128,1087.6585 1085.1056,1067.5884 1110.8662,1054.0548 C1080.6691,1036.9243 1087.0545,1008.9904 1115,996 C1117.4019,995.9779 1118.2645,997.9545 1117.29,999.9099 " fill="#FFFFFF" style="stroke: #0000FF; stroke-width: 2.0;"/><text fill="#000000" font-family="sans-serif" font-size="14" font-weight="bold" lengthAdjust="spacingAndGlyphs" textLength="47" x="1333.5" y="1013.9951">Azure</text><!--MD5=[281626521d65acc8791b126416b940d8]
cluster EdgeDevice--><rect fill="#FFFFFF" filter="url(#f1jn5unpfao0g0)" height="1444" style="stroke: #000000; stroke-width: 1.5;" width="1054" x="22" y="24"/><path d="M129,25 L129,33.2969 L119,43.2969 L22,43.2969 " fill="none" style="stroke: #000000; stroke-width: 1.5;"/><text fill="#000000" font-family="sans-serif" font-size="14" font-weight="bold" lengthAdjust="spacingAndGlyphs" textLength="97" x="25" y="37.9951">Edge Device</text><!--MD5=[816ebc8c4bd8b6768c738960bca4e0c6]
cluster NativeProcesses--><polygon fill="#FFFFFF" filter="url(#f1jn5unpfao0g0)" points="389,601,576,601,583,623.2969,1008,623.2969,1008,1234,389,1234,389,601" style="stroke: #FF0000; stroke-width: 2.0;"/><line style="stroke: #FF0000; stroke-width: 2.0;" x1="389" x2="583" y1="623.2969" y2="623.2969"/><text fill="#000000" font-family="sans-serif" font-size="14" font-weight="bold" lengthAdjust="spacingAndGlyphs" textLength="181" x="393" y="615.9951">Edge Native Processes</text><!--MD5=[2bab707fe80fc66edefdfbcc8d0a33e8]
cluster IoTIdentityService--><polygon fill="#FFFFFF" filter="url(#f1jn5unpfao0g0)" points="413,854,561,854,568,876.2969,971,876.2969,971,1210,413,1210,413,854" style="stroke: #000000; stroke-width: 1.5;"/><line style="stroke: #000000; stroke-width: 1.5;" x1="413" x2="568" y1="876.2969" y2="876.2969"/><text fill="#000000" font-family="sans-serif" font-size="14" font-weight="bold" lengthAdjust="spacingAndGlyphs" textLength="142" x="417" y="868.9951">IoTIdentityService</text><!--MD5=[b63f72ccafef55e86aa67c00a17f8ca0]
cluster OCIContainers--><rect fill="#FFFFFF" filter="url(#f1jn5unpfao0g0)" height="469" style="stroke: #006400; stroke-width: 2.0;" width="805" x="239" y="75"/><text fill="#000000" font-family="sans-serif" font-size="14" font-weight="bold" lengthAdjust="spacingAndGlyphs" textLength="118" x="582.5" y="89.9951">OCI Containers</text><!--MD5=[cce4cc766e2ded47b67c0389adec1518]
cluster EdgeContainers--><polygon fill="#FFFFFF" filter="url(#f1jn5unpfao0g0)" points="279,306,415,306,422,328.2969,1012,328.2969,1012,512,279,512,279,306" style="stroke: #FF0000; stroke-width: 2.0;"/><line style="stroke: #FF0000; stroke-width: 2.0;" x1="279" x2="422" y1="328.2969" y2="328.2969"/><text fill="#000000" font-family="sans-serif" font-size="14" font-weight="bold" lengthAdjust="spacingAndGlyphs" textLength="130" x="283" y="320.9951">Edge Containers</text><!--MD5=[26524574904d258744fbdaf09d0e25a1]
cluster UserContainer--><polygon fill="#98FB98" filter="url(#f1jn5unpfao0g0)" points="751,126,876,126,883,148.2969,985,148.2969,985,233,751,233,751,126" style="stroke: #008000; stroke-width: 2.0;"/><line style="stroke: #008000; stroke-width: 2.0;" x1="751" x2="883" y1="148.2969" y2="148.2969"/><text fill="#000000" font-family="sans-serif" font-size="14" font-weight="bold" lengthAdjust="spacingAndGlyphs" textLength="119" x="755" y="140.9951">User Container</text><!--MD5=[d16ba6d7c0e2d4c50bc2e4b505c954a9]
cluster ChildDevice--><rect fill="#FFFFFF" filter="url(#f1jn5unpfao0g0)" height="174" style="stroke: #000000; stroke-width: 1.5;" width="282" x="1100" y="83"/><path d="M1207,84 L1207,92.2969 L1197,102.2969 L1100,102.2969 " fill="none" style="stroke: #000000; stroke-width: 1.5;"/><text fill="#000000" font-family="sans-serif" font-size="14" font-weight="bold" lengthAdjust="spacingAndGlyphs" textLength="97" x="1103" y="96.9951">Child Device</text><!--MD5=[d64883541e3d62e3241c4d12decf100d]
cluster Application--><polygon fill="#98FB98" filter="url(#f1jn5unpfao0g0)" points="1124,126,1217,126,1224,148.2969,1358,148.2969,1358,233,1124,233,1124,126" style="stroke: #008000; stroke-width: 2.0;"/><line style="stroke: #008000; stroke-width: 2.0;" x1="1124" x2="1224" y1="148.2969" y2="148.2969"/><text fill="#000000" font-family="sans-serif" font-size="14" font-weight="bold" lengthAdjust="spacingAndGlyphs" textLength="87" x="1128" y="140.9951">Application</text><!--MD5=[0bcc6d17b7e3e8c7f2d98076b3d1cf59]
entity IoTHubDeviceAPI--><ellipse cx="1337" cy="1052" fill="#FEFECE" filter="url(#f1jn5unpfao0g0)" rx="8" ry="8" style="stroke: #A80036; stroke-width: 2.0;"/><text fill="#000000" font-family="sans-serif" font-size="14" lengthAdjust="spacingAndGlyphs" textLength="117" x="1278.5" y="1081.9951">IoTHubDeviceAPI</text><!--MD5=[e25faf4fcaf29f9bfd61e0b6ed7bc480]
entity Azure IoT Hub--><rect fill="#FEFECE" filter="url(#f1jn5unpfao0g0)" height="36.2969" style="stroke: #A80036; stroke-width: 1.5;" width="117" x="1368.5" y="1158"/><rect fill="#FEFECE" height="5" style="stroke: #A80036; stroke-width: 1.5;" width="10" x="1363.5" y="1163"/><rect fill="#FEFECE" height="5" style="stroke: #A80036; stroke-width: 1.5;" width="10" x="1363.5" y="1184.2969"/><text fill="#000000" font-family="sans-serif" font-size="14" lengthAdjust="spacingAndGlyphs" textLength="97" x="1378.5" y="1180.9951">Azure IoT Hub</text><!--MD5=[4e6235f284c20288e89a58746520b01a]
entity DeviceScopeSyncAPI--><ellipse cx="1518" cy="1052" fill="#FEFECE" filter="url(#f1jn5unpfao0g0)" rx="8" ry="8" style="stroke: #A80036; stroke-width: 2.0;"/><text fill="#000000" font-family="sans-serif" font-size="14" lengthAdjust="spacingAndGlyphs" textLength="145" x="1445.5" y="1081.9951">DeviceScopeSyncAPI</text><!--MD5=[59b1d7703d4ad59bb9be534a3749090a]
entity ProvisioningAPI--><ellipse cx="1176" cy="1052" fill="#FEFECE" filter="url(#f1jn5unpfao0g0)" rx="8" ry="8" style="stroke: #A80036; stroke-width: 2.0;"/><text fill="#000000" font-family="sans-serif" font-size="14" lengthAdjust="spacingAndGlyphs" textLength="104" x="1124" y="1081.9951">ProvisioningAPI</text><!--MD5=[2de585bbb403805692914433a5cb53c2]
entity DPS--><rect fill="#FEFECE" filter="url(#f1jn5unpfao0g0)" height="36.2969" style="stroke: #A80036; stroke-width: 1.5;" width="49" x="1151.5" y="1158"/><rect fill="#FEFECE" height="5" style="stroke: #A80036; stroke-width: 1.5;" width="10" x="1146.5" y="1163"/><rect fill="#FEFECE" height="5" style="stroke: #A80036; stroke-width: 1.5;" width="10" x="1146.5" y="1184.2969"/><text fill="#000000" font-family="sans-serif" font-size="14" lengthAdjust="spacingAndGlyphs" textLength="29" x="1161.5" y="1180.9951">DPS</text><!--MD5=[aa23a6a0b86caf3380cddfd6a58caaf9]
entity OCI--><ellipse cx="94" cy="189" fill="#FEFECE" filter="url(#f1jn5unpfao0g0)" rx="8" ry="8" style="stroke: #A80036; stroke-width: 2.0;"/><text fill="#000000" font-family="sans-serif" font-size="14" lengthAdjust="spacingAndGlyphs" textLength="24" x="82" y="218.9951">OCI</text><!--MD5=[c2f993789710ac706f164881e02e8bf1]
entity Container Engine--><rect fill="#FEFECE" filter="url(#f1jn5unpfao0g0)" height="36.2969" style="stroke: #A80036; stroke-width: 1.5;" width="139" x="75.5" y="352"/><rect fill="#FEFECE" height="5" style="stroke: #A80036; stroke-width: 1.5;" width="10" x="70.5" y="357"/><rect fill="#FEFECE" height="5" style="stroke: #A80036; stroke-width: 1.5;" width="10" x="70.5" y="378.2969"/><text fill="#000000" font-family="sans-serif" font-size="14" lengthAdjust="spacingAndGlyphs" textLength="119" x="85.5" y="374.9951">Container Engine</text><!--MD5=[13e158fb438d67c2b5c00143c1c4d571]
entity P11--><ellipse cx="934" cy="1326" fill="#FEFECE" filter="url(#f1jn5unpfao0g0)" rx="8" ry="8" style="stroke: #A80036; stroke-width: 2.0;"/><text fill="#000000" font-family="sans-serif" font-size="14" lengthAdjust="spacingAndGlyphs" textLength="27" x="920.5" y="1355.9951">P11</text><!--MD5=[baaa56b12270ad5da8ae02c642706df2]
entity TPM/HSM--><rect fill="#FEFECE" filter="url(#f1jn5unpfao0g0)" height="36.2969" style="stroke: #A80036; stroke-width: 1.5;" width="86" x="891" y="1416"/><rect fill="#FEFECE" height="5" style="stroke: #A80036; stroke-width: 1.5;" width="10" x="886" y="1421"/><rect fill="#FEFECE" height="5" style="stroke: #A80036; stroke-width: 1.5;" width="10" x="886" y="1442.2969"/><text fill="#000000" font-family="sans-serif" font-size="14" lengthAdjust="spacingAndGlyphs" textLength="66" x="901" y="1438.9951">TPM/HSM</text><!--MD5=[24dfcd96b441fe03d0c31121fb2dfd4b]
entity Management--><ellipse cx="799" cy="665" fill="#FEFECE" filter="url(#f1jn5unpfao0g0)" rx="8" ry="8" style="stroke: #A80036; stroke-width: 2.0;"/><text fill="#000000" font-family="sans-serif" font-size="14" lengthAdjust="spacingAndGlyphs" textLength="91" x="753.5" y="694.9951">Management</text><!--MD5=[64bfe6d714479e15d62db32e358a4be7]
entity Edge Daemon--><rect fill="#FEFECE" filter="url(#f1jn5unpfao0g0)" height="36.2969" style="stroke: #A80036; stroke-width: 1.5;" width="119" x="568.5" y="755"/><rect fill="#FEFECE" height="5" style="stroke: #A80036; stroke-width: 1.5;" width="10" x="563.5" y="760"/><rect fill="#FEFECE" height="5" style="stroke: #A80036; stroke-width: 1.5;" width="10" x="563.5" y="781.2969"/><text fill="#000000" font-family="sans-serif" font-size="14" lengthAdjust="spacingAndGlyphs" textLength="99" x="578.5" y="777.9951">Edge Daemon</text><!--MD5=[251dbc50de4565969c60f397fc4eef6b]
entity Workload--><ellipse cx="628" cy="665" fill="#FEFECE" filter="url(#f1jn5unpfao0g0)" rx="8" ry="8" style="stroke: #A80036; stroke-width: 2.0;"/><text fill="#000000" font-family="sans-serif" font-size="14" lengthAdjust="spacingAndGlyphs" textLength="64" x="596" y="694.9951">Workload</text><!--MD5=[e91d325b6c6799f45ce2945c46a99c1c]
entity IS--><ellipse cx="628" cy="907" fill="#FEFECE" filter="url(#f1jn5unpfao0g0)" rx="8" ry="8" style="stroke: #A80036; stroke-width: 2.0;"/><text fill="#000000" font-family="sans-serif" font-size="14" lengthAdjust="spacingAndGlyphs" textLength="12" x="622" y="936.9951">IS</text><!--MD5=[d6b170a0c995669a2099a1710c3a987d]
entity Identity Service--><rect fill="#FEFECE" filter="url(#f1jn5unpfao0g0)" height="36.2969" style="stroke: #A80036; stroke-width: 1.5;" width="124" x="672" y="889"/><rect fill="#FEFECE" height="5" style="stroke: #A80036; stroke-width: 1.5;" width="10" x="667" y="894"/><rect fill="#FEFECE" height="5" style="stroke: #A80036; stroke-width: 1.5;" width="10" x="667" y="915.2969"/><text fill="#000000" font-family="sans-serif" font-size="14" lengthAdjust="spacingAndGlyphs" textLength="104" x="682" y="911.9951">Identity Service</text><!--MD5=[c3d963de545692ce062b829afe2e18c4]
entity CS--><ellipse cx="438" cy="1052" fill="#FEFECE" filter="url(#f1jn5unpfao0g0)" rx="8" ry="8" style="stroke: #A80036; stroke-width: 2.0;"/><text fill="#000000" font-family="sans-serif" font-size="14" lengthAdjust="spacingAndGlyphs" textLength="19" x="428.5" y="1081.9951">CS</text><!--MD5=[9e71d492c6343db7b0dd0096c2bb1f53]
entity Certificate Service--><rect fill="#FEFECE" filter="url(#f1jn5unpfao0g0)" height="36.2969" style="stroke: #A80036; stroke-width: 1.5;" width="143" x="482.5" y="1034"/><rect fill="#FEFECE" height="5" style="stroke: #A80036; stroke-width: 1.5;" width="10" x="477.5" y="1039"/><rect fill="#FEFECE" height="5" style="stroke: #A80036; stroke-width: 1.5;" width="10" x="477.5" y="1060.2969"/><text fill="#000000" font-family="sans-serif" font-size="14" lengthAdjust="spacingAndGlyphs" textLength="123" x="492.5" y="1056.9951">Certificate Service</text><!--MD5=[886e933e82ef50e1e29e0a1f3062ea3b]
entity KS--><ellipse cx="733" cy="1176" fill="#FEFECE" filter="url(#f1jn5unpfao0g0)" rx="8" ry="8" style="stroke: #A80036; stroke-width: 2.0;"/><text fill="#000000" font-family="sans-serif" font-size="14" lengthAdjust="spacingAndGlyphs" textLength="18" x="724" y="1205.9951">KS</text><!--MD5=[a9e0caba7444c4f7a7efe25ffaf1bcd4]
entity Keys Service--><rect fill="#FEFECE" filter="url(#f1jn5unpfao0g0)" height="36.2969" style="stroke: #A80036; stroke-width: 1.5;" width="107" x="796.5" y="1158"/><rect fill="#FEFECE" height="5" style="stroke: #A80036; stroke-width: 1.5;" width="10" x="791.5" y="1163"/><rect fill="#FEFECE" height="5" style="stroke: #A80036; stroke-width: 1.5;" width="10" x="791.5" y="1184.2969"/><text fill="#000000" font-family="sans-serif" font-size="14" lengthAdjust="spacingAndGlyphs" textLength="87" x="806.5" y="1180.9951">Keys Service</text><!--MD5=[34c03d534faab791d8af77818b55f59b]
entity TS--><ellipse cx="807" cy="1052" fill="#FEFECE" filter="url(#f1jn5unpfao0g0)" rx="8" ry="8" style="stroke: #A80036; stroke-width: 2.0;"/><text fill="#000000" font-family="sans-serif" font-size="14" lengthAdjust="spacingAndGlyphs" textLength="18" x="798" y="1081.9951">TS</text><!--MD5=[b62876059ac399750835224ac9e09399]
entity TPM Service--><rect fill="#FEFECE" filter="url(#f1jn5unpfao0g0)" height="36.2969" style="stroke: #A80036; stroke-width: 1.5;" width="104" x="851" y="1034"/><rect fill="#FEFECE" height="5" style="stroke: #A80036; stroke-width: 1.5;" width="10" x="846" y="1039"/><rect fill="#FEFECE" height="5" style="stroke: #A80036; stroke-width: 1.5;" width="10" x="846" y="1060.2969"/><text fill="#000000" font-family="sans-serif" font-size="14" lengthAdjust="spacingAndGlyphs" textLength="84" x="861" y="1056.9951">TPM Service</text><!--MD5=[9e9c2ba3bc7244e9528cc6170db41960]
entity EdgeAgentMetrics--><ellipse cx="366" cy="370" fill="#FEFECE" filter="url(#f1jn5unpfao0g0)" rx="8" ry="8" style="stroke: #A80036; stroke-width: 2.0;"/><text fill="#000000" font-family="sans-serif" font-size="14" lengthAdjust="spacingAndGlyphs" textLength="127" x="302.5" y="399.9951">EdgeAgentMetrics</text><!--MD5=[2c01821fc6f3de0dbda5663dd1c5df77]
entity Edge Agent--><rect fill="#FEFECE" filter="url(#f1jn5unpfao0g0)" height="36.2969" style="stroke: #A80036; stroke-width: 1.5;" width="101" x="625.5" y="460"/><rect fill="#FEFECE" height="5" style="stroke: #A80036; stroke-width: 1.5;" width="10" x="620.5" y="465"/><rect fill="#FEFECE" height="5" style="stroke: #A80036; stroke-width: 1.5;" width="10" x="620.5" y="486.2969"/><text fill="#000000" font-family="sans-serif" font-size="14" lengthAdjust="spacingAndGlyphs" textLength="81" x="635.5" y="482.9951">Edge Agent</text><!--MD5=[352505984830de29bb383bbc2990ca24]
entity EdgeHubDeviceAPI--><ellipse cx="922" cy="370" fill="#FEFECE" filter="url(#f1jn5unpfao0g0)" rx="8" ry="8" style="stroke: #A80036; stroke-width: 2.0;"/><text fill="#000000" font-family="sans-serif" font-size="14" lengthAdjust="spacingAndGlyphs" textLength="132" x="856" y="399.9951">EdgeHubDeviceAPI</text><!--MD5=[d72bcda75e358e89fa920e7c9259f694]
entity Edge Hub--><rect fill="#FEFECE" filter="url(#f1jn5unpfao0g0)" height="36.2969" style="stroke: #A80036; stroke-width: 1.5;" width="88" x="801" y="460"/><rect fill="#FEFECE" height="5" style="stroke: #A80036; stroke-width: 1.5;" width="10" x="796" y="465"/><rect fill="#FEFECE" height="5" style="stroke: #A80036; stroke-width: 1.5;" width="10" x="796" y="486.2969"/><text fill="#000000" font-family="sans-serif" font-size="14" lengthAdjust="spacingAndGlyphs" textLength="68" x="811" y="482.9951">Edge Hub</text><!--MD5=[278f2dce62fdfeec9ab316e4afea2c4d]
entity EdgeHubMetrics--><ellipse cx="748" cy="370" fill="#FEFECE" filter="url(#f1jn5unpfao0g0)" rx="8" ry="8" style="stroke: #A80036; stroke-width: 2.0;"/><text fill="#000000" font-family="sans-serif" font-size="14" lengthAdjust="spacingAndGlyphs" textLength="114" x="691" y="399.9951">EdgeHubMetrics</text><!--MD5=[33b40805846248da9168f2da9eaf047e]
entity EdgeDeviceScopeSync--><ellipse cx="560" cy="370" fill="#FEFECE" filter="url(#f1jn5unpfao0g0)" rx="8" ry="8" style="stroke: #A80036; stroke-width: 2.0;"/><text fill="#000000" font-family="sans-serif" font-size="14" lengthAdjust="spacingAndGlyphs" textLength="160" x="480" y="399.9951">EdgeDeviceScopeSync</text><!--MD5=[09c0cf9b8123f65628fa9604f242f59d]
entity MSDK--><polygon fill="#98FB98" filter="url(#f1jn5unpfao0g0)" points="767.5,161,818.5,161,825.5,183.2969,968.5,183.2969,968.5,216.5938,767.5,216.5938,767.5,161" style="stroke: #000000; stroke-width: 1.5;"/><line style="stroke: #000000; stroke-width: 1.5;" x1="767.5" x2="825.5" y1="183.2969" y2="183.2969"/><text fill="#000000" font-family="sans-serif" font-size="14" font-weight="bold" lengthAdjust="spacingAndGlyphs" textLength="45" x="771.5" y="176.9951">MSDK</text><text fill="#000000" font-family="sans-serif" font-size="14" font-weight="bold" lengthAdjust="spacingAndGlyphs" textLength="171" x="777.5" y="203.292">Azure IoT Device SDK</text><!--MD5=[0592526fd208992b53455538d54c0050]
entity DSDK--><polygon fill="#98FB98" filter="url(#f1jn5unpfao0g0)" points="1140.5,161,1189.5,161,1196.5,183.2969,1341.5,183.2969,1341.5,216.5938,1140.5,216.5938,1140.5,161" style="stroke: #000000; stroke-width: 1.5;"/><line style="stroke: #000000; stroke-width: 1.5;" x1="1140.5" x2="1196.5" y1="183.2969" y2="183.2969"/><text fill="#000000" font-family="sans-serif" font-size="14" font-weight="bold" lengthAdjust="spacingAndGlyphs" textLength="43" x="1144.5" y="176.9951">DSDK</text><text fill="#000000" font-family="sans-serif" font-size="14" font-weight="bold" lengthAdjust="spacingAndGlyphs" textLength="171" x="1150.5" y="203.292">Azure IoT Device SDK</text><!--MD5=[8320a730f52ae822106ae1a7ca1cb063]
link IoTHubDeviceAPI to Azure IoT Hub--><path d="M1342.91,1061 C1357.3,1080.51 1394.44,1130.87 1414.2,1157.65 " fill="none" id="IoTHubDeviceAPI-Azure IoT Hub" style="stroke: #A80036; stroke-width: 1.0;"/><!--MD5=[4bc6779340d38e3b552bb61596fb8a01]
link DeviceScopeSyncAPI to Azure IoT Hub--><path d="M1512.03,1061 C1497.48,1080.51 1459.92,1130.87 1439.94,1157.65 " fill="none" id="DeviceScopeSyncAPI-Azure IoT Hub" style="stroke: #A80036; stroke-width: 1.0;"/><!--MD5=[89058515defce54394bc098df96ebdaf]
link ProvisioningAPI to DPS--><path d="M1176,1061 C1176,1080.51 1176,1130.87 1176,1157.65 " fill="none" id="ProvisioningAPI-DPS" style="stroke: #A80036; stroke-width: 1.0;"/><!--MD5=[4106572ff4aa97797b7bb258fe5d49d5]
link OCI to Container Engine--><path d="M96.32,198.16 C104.12,225.51 129.44,314.4 140.15,351.98 " fill="none" id="OCI-Container Engine" style="stroke: #A80036; stroke-width: 1.0;"/><!--MD5=[9b7820183f66a09c250455b7749acb86]
link P11 to TPM/HSM--><path d="M934,1335.32 C934,1352.59 934,1392.68 934,1415.77 " fill="none" id="P11-TPM/HSM" style="stroke: #A80036; stroke-width: 1.0;"/><!--MD5=[cc02b8cf9c4d7f49e4ae2402ef3ff656]
link IS to Identity Service--><path d="M637.11,907 C648.72,907 660.32,907 671.93,907 " fill="none" id="IS-Identity Service" style="stroke: #A80036; stroke-width: 1.0;"/><!--MD5=[94361fc58261fd49a25dfaa4a4e3aa79]
link CS to Certificate Service--><path d="M447.06,1052 C458.76,1052 470.46,1052 482.15,1052 " fill="none" id="CS-Certificate Service" style="stroke: #A80036; stroke-width: 1.0;"/><!--MD5=[d96f1e1476ef8bb766afaf8122581a38]
link KS to Keys Service--><path d="M742.14,1176 C760.26,1176 778.37,1176 796.49,1176 " fill="none" id="KS-Keys Service" style="stroke: #A80036; stroke-width: 1.0;"/><!--MD5=[b55a463c82eb62b091adb44d41bfa6e8]
link TS to TPM Service--><path d="M816.38,1052 C827.88,1052 839.38,1052 850.89,1052 " fill="none" id="TS-TPM Service" style="stroke: #A80036; stroke-width: 1.0;"/><!--MD5=[78d97671502ad61618f2608ead6f8b2e]
link Management to Edge Daemon--><path d="M789.81,671.7 C764.83,687.18 694.98,730.48 655.71,754.82 " fill="none" id="Management-Edge Daemon" style="stroke: #A80036; stroke-width: 1.0;"/><!--MD5=[905791401f36c22f283bcf86dfdad302]
link Workload to Edge Daemon--><path d="M628,674.32 C628,691.59 628,731.68 628,754.77 " fill="none" id="Workload-Edge Daemon" style="stroke: #A80036; stroke-width: 1.0;"/><!--MD5=[a978e02ff057a97dad14aab3f94eac55]
link EdgeAgentMetrics to Edge Agent--><path d="M375.28,374.17 C412.25,386.81 550.73,434.17 626.2,459.97 " fill="none" id="EdgeAgentMetrics-Edge Agent" style="stroke: #A80036; stroke-width: 1.0;"/><!--MD5=[4aa458a07d5b501840412cfc22256e86]
link EdgeHubDeviceAPI to Edge Hub--><path d="M915.96,379.32 C903.41,396.59 874.29,436.68 857.52,459.77 " fill="none" id="EdgeHubDeviceAPI-Edge Hub" style="stroke: #A80036; stroke-width: 1.0;"/><!--MD5=[fdae41c581426a1d5e2437566f5eea94]
link EdgeHubMetrics to Edge Hub--><path d="M755.61,379.32 C771.42,396.59 808.1,436.68 829.23,459.77 " fill="none" id="EdgeHubMetrics-Edge Hub" style="stroke: #A80036; stroke-width: 1.0;"/><!--MD5=[9a18af1d77223c5eb8b4f6d2fce4d4b0]
link EdgeDeviceScopeSync to Edge Hub--><path d="M569.16,374.41 C604.36,387.5 732.42,435.13 800.97,460.63 " fill="none" id="EdgeDeviceScopeSync-Edge Hub" style="stroke: #A80036; stroke-width: 1.0;"/><!--MD5=[4819fff49975249d0641eb4c23c085f0]
link Identity Service to CS--><path d="M685.55,925.08 C643.15,939.45 579.65,959.58 523,972 C510.29,974.79 475.18,971.9 465,980 C447.2,994.17 441.13,1021.48 439.06,1037.79 " fill="none" id="Identity Service-&gt;CS" style="stroke: #A80036; stroke-width: 1.0;"/><polygon fill="#A80036" points="438.5,1042.86,443.4533,1034.3474,439.0428,1037.8895,435.5006,1033.479,438.5,1042.86" style="stroke: #A80036; stroke-width: 1.0;"/><text fill="#000000" font-family="sans-serif" font-size="13" lengthAdjust="spacingAndGlyphs" textLength="65" x="588" y="968.0669">HTTP/UDS</text><!--MD5=[5dd3be85b9fb4b109f62275f8dd06070]
link Identity Service to KS--><path d="M717.96,925.34 C711.34,933.66 704.42,944.16 701,955 C677.83,1028.32 678.36,1054.52 701,1128 C705.05,1141.13 714.16,1153.88 721.62,1162.78 " fill="none" id="Identity Service-&gt;KS" style="stroke: #A80036; stroke-width: 1.0;"/><polygon fill="#A80036" points="725.13,1166.82,722.2719,1157.395,721.8608,1163.0368,716.2189,1162.6257,725.13,1166.82" style="stroke: #A80036; stroke-width: 1.0;"/><text fill="#000000" font-family="sans-serif" font-size="13" lengthAdjust="spacingAndGlyphs" textLength="65" x="693" y="1056.5669">HTTP/UDS</text><!--MD5=[98af18ff15262a8a3a2c30a2300496a5]
link Identity Service to TS--><path d="M721.07,925.08 C712.09,939.15 703.61,958.87 715,972 C731.47,990.99 750.56,965.36 771,980 C790.38,993.89 799.99,1021.3 804.19,1037.7 " fill="none" id="Identity Service-&gt;TS" style="stroke: #A80036; stroke-width: 1.0;"/><polygon fill="#A80036" points="805.42,1042.8,807.1984,1033.113,804.2477,1037.9394,799.4214,1034.9887,805.42,1042.8" style="stroke: #A80036; stroke-width: 1.0;"/><text fill="#000000" font-family="sans-serif" font-size="13" lengthAdjust="spacingAndGlyphs" textLength="65" x="716" y="968.0669">HTTP/UDS</text><!--MD5=[cc666966baf8930c37f19a4b11582b5a]
link Identity Service to ProvisioningAPI--><path d="M801.28,912.96 C857.79,918.66 939.98,930.59 1008,955 C1069.83,977.18 1135.22,1021.49 1162.66,1041.18 " fill="none" id="Identity Service-ProvisioningAPI" style="stroke: #0000FF; stroke-width: 8.0; stroke-dasharray: 1.0,3.0;"/><polygon fill="#0000FF" points="1166.73,1044.12,1161.7737,1035.6091,1162.6759,1041.1936,1157.0914,1042.0958,1166.73,1044.12" style="stroke: #0000FF; stroke-width: 8.0;"/><polygon fill="#0000FF" points="796.24,912.46,804.7945,917.3406,801.2149,912.9603,805.5951,909.3807,796.24,912.46" style="stroke: #0000FF; stroke-width: 8.0;"/><text fill="#000000" font-family="sans-serif" font-size="13" lengthAdjust="spacingAndGlyphs" textLength="41" x="1047" y="968.0669">HTTPS</text><!--MD5=[8f391e3fea0134432110edda8cbd8b67]
link Certificate Service to KS--><path d="M565.59,1070.23 C577.55,1086.9 597.58,1111.94 620,1128 C651.82,1150.8 696.36,1165.12 718.84,1171.36 " fill="none" id="Certificate Service-&gt;KS" style="stroke: #A80036; stroke-width: 1.0;"/><polygon fill="#A80036" points="723.8,1172.71,716.1494,1166.5078,718.9719,1171.4101,714.0696,1174.2327,723.8,1172.71" style="stroke: #A80036; stroke-width: 1.0;"/><text fill="#000000" font-family="sans-serif" font-size="13" lengthAdjust="spacingAndGlyphs" textLength="65" x="621" y="1124.0669">HTTP/UDS</text><!--MD5=[0b27feec1e787e6c68e673919ec7d912]
link TPM Service to P11--><path d="M911.46,1070.1 C927.52,1103.61 961.89,1180.7 974,1250 C975.3,1257.44 976.25,1259.79 974,1267 C968.43,1284.89 955.2,1302.14 945.48,1313.11 " fill="none" id="TPM Service-&gt;P11" style="stroke: #A80036; stroke-width: 1.0;"/><polygon fill="#A80036" points="942.07,1316.85,951.0884,1312.8916,945.4376,1313.1542,945.1751,1307.5034,942.07,1316.85" style="stroke: #A80036; stroke-width: 1.0;"/><text fill="#000000" font-family="sans-serif" font-size="13" lengthAdjust="spacingAndGlyphs" textLength="65" x="973" y="1180.5669">PKCS #11</text><!--MD5=[d1e6528f187003edaa1fcc4925ad446d]
link Keys Service to P11--><path d="M859.8,1194.27 C876.91,1224.42 911.84,1285.96 926.87,1312.44 " fill="none" id="Keys Service-&gt;P11" style="stroke: #A80036; stroke-width: 1.0;"/><polygon fill="#A80036" points="929.43,1316.96,928.4689,1307.1581,926.9631,1312.6109,921.5104,1311.1051,929.43,1316.96" style="stroke: #A80036; stroke-width: 1.0;"/><text fill="#000000" font-family="sans-serif" font-size="13" lengthAdjust="spacingAndGlyphs" textLength="65" x="900" y="1263.0669">PKCS #11</text><!--MD5=[f6541b87c098a2f5f06b69d1a4e392b9]
link Edge Daemon to IS--><path d="M628,791.26 C628,817.91 628,868.53 628,892.62 " fill="none" id="Edge Daemon-&gt;IS" style="stroke: #A80036; stroke-width: 1.0;"/><polygon fill="#A80036" points="628,897.87,632,888.87,628,892.87,624,888.87,628,897.87" style="stroke: #A80036; stroke-width: 1.0;"/><text fill="#000000" font-family="sans-serif" font-size="13" lengthAdjust="spacingAndGlyphs" textLength="65" x="629" y="834.0669">HTTP/UDS</text><!--MD5=[2afdd5b21594bbcf9caaefe6739d36a4]
link Edge Daemon to CS--><path d="M599.74,791.17 C579.81,804.32 553.47,823.92 535,846 C482.96,908.2 451.87,1003.02 441.7,1037.7 " fill="none" id="Edge Daemon-&gt;CS" style="stroke: #A80036; stroke-width: 1.0;"/><polygon fill="#A80036" points="440.25,1042.74,446.5834,1035.1976,441.633,1037.9351,438.8955,1032.9847,440.25,1042.74" style="stroke: #A80036; stroke-width: 1.0;"/><text fill="#000000" font-family="sans-serif" font-size="13" lengthAdjust="spacingAndGlyphs" textLength="65" x="536" y="911.5669">HTTP/UDS</text><!--MD5=[3a71d7edee375027a9e256dd98d469c6]
link Edge Daemon to KS--><path d="M687.8,789.71 C725.96,801.47 775.34,820.02 814,846 C877.93,888.96 865.61,934.69 933,972 C948.86,980.78 961.51,965.98 973,980 C1001.46,1014.71 998.3,1043.92 973,1081 C969.56,1086.04 797.92,1150.67 747.06,1169.74 " fill="none" id="Edge Daemon-&gt;KS" style="stroke: #A80036; stroke-width: 1.0;"/><polygon fill="#A80036" points="742.26,1171.54,752.0915,1172.1252,746.9416,1169.7844,749.2825,1164.6346,742.26,1171.54" style="stroke: #A80036; stroke-width: 1.0;"/><text fill="#000000" font-family="sans-serif" font-size="13" lengthAdjust="spacingAndGlyphs" textLength="65" x="934" y="968.0669">HTTP/UDS</text><!--MD5=[e1162f27d7271d03ba427ccf3f329e0c]
reverse link OCI to Edge Daemon--><path d="M87.15,202.81 C70.23,236.28 29.77,328.65 58,399 C145.53,617.14 440.71,721.39 568.36,757.11 " fill="none" id="OCI&lt;-Edge Daemon" style="stroke: #A80036; stroke-width: 1.0;"/><polygon fill="#A80036" points="89.47,198.31,81.7958,204.4831,87.1826,202.7561,88.9096,208.1429,89.47,198.31" style="stroke: #A80036; stroke-width: 1.0;"/><text fill="#000000" font-family="sans-serif" font-size="13" lengthAdjust="spacingAndGlyphs" textLength="65" x="177" y="482.5669">HTTP/UDS</text><!--MD5=[37e19d6f2b6a2d62cc54616106944f7d]
reverse link OCIContainers to Container Engine--><path d="M238.9823,273.5099 C238.6931,274.0705 238.4,274.6298 238.1028,275.1876 C237.5086,276.3033 236.8986,277.4133 236.2737,278.5173 C233.774,282.9335 231.0365,287.2548 228.1198,291.4653 C222.2866,299.8863 215.7369,307.8638 208.9413,315.27 C195.35,330.0825 180.775,342.61 168.98,351.83 " fill="none" id="OCIContainers&lt;-Container Engine" style="stroke: #A80036; stroke-width: 1.0;"/><polygon fill="#A80036" points="238.9823,273.5099,231.3021,279.6756,236.6906,277.9538,238.4124,283.3422,238.9823,273.5099" style="stroke: #A80036; stroke-width: 1.0;"/><!--MD5=[d6307d02c53aee3df4385e5b4ef4c76f]
link Edge Agent to Workload--><path d="M668.37,496.02 C659.52,514.07 643.37,542.34 622,560 C614.94,565.84 608.07,560.37 603,568 C585.61,594.19 605.73,631.84 618.71,651.29 " fill="none" id="Edge Agent-&gt;Workload" style="stroke: #A80036; stroke-width: 1.0;"/><polygon fill="#A80036" points="621.83,655.82,620.0203,646.1388,618.9943,651.7019,613.4313,650.6759,621.83,655.82" style="stroke: #A80036; stroke-width: 1.0;"/><text fill="#000000" font-family="sans-serif" font-size="13" lengthAdjust="spacingAndGlyphs" textLength="65" x="604" y="581.0669">HTTP/UDS</text><!--MD5=[33097bcd004fee631dbf0e30f0a4ee1d]
link Edge Agent to Management--><path d="M705.83,496.2 C730.03,511.78 762.99,537.01 781,568 C796.29,594.31 798.99,630.9 799.24,650.43 " fill="none" id="Edge Agent-&gt;Management" style="stroke: #A80036; stroke-width: 1.0;"/><polygon fill="#A80036" points="799.25,655.92,803.25,646.92,799.25,650.92,795.25,646.92,799.25,655.92" style="stroke: #A80036; stroke-width: 1.0;"/><text fill="#000000" font-family="sans-serif" font-size="13" lengthAdjust="spacingAndGlyphs" textLength="65" x="789" y="581.0669">HTTP/UDS</text><!--MD5=[74f147384b9742f7879c9f7514c13fc0]
link Edge Agent to IoTHubDeviceAPI--><path d="M696.39,499.78 C716.66,519.01 749.61,546.58 784,560 C816.87,572.83 828.03,563.22 863,568 C927.79,576.86 945.73,573.03 1008,593 C1077.09,615.16 1155,591.45 1155,664 C1155,664 1155,664 1155,908 C1155,962.41 1211.3,946.29 1254,980 C1279.52,1000.15 1308.09,1025.16 1324.18,1039.48 " fill="none" id="Edge Agent-IoTHubDeviceAPI" style="stroke: #0000FF; stroke-width: 8.0; stroke-dasharray: 1.0,3.0;"/><polygon fill="#0000FF" points="1327.99,1042.88,1323.9229,1033.9101,1324.2537,1039.5573,1318.6066,1039.8881,1327.99,1042.88" style="stroke: #0000FF; stroke-width: 8.0;"/><polygon fill="#0000FF" points="692.51,496.06,696.2121,505.1866,696.1092,499.5307,701.7651,499.4278,692.51,496.06" style="stroke: #0000FF; stroke-width: 8.0;"/><text fill="#000000" font-family="sans-serif" font-size="13" lengthAdjust="spacingAndGlyphs" textLength="95" x="1156" y="777.5669">AMQPS/MQTTS</text><!--MD5=[40a30cb2617e3657d4a9d42ec521ffce]
link Edge Hub to IoTHubDeviceAPI--><path d="M894.11,486.86 C1017.73,508.03 1332,571 1332,664 C1332,664 1332,664 1332,908 C1332,955.81 1334.83,1012.55 1336.23,1037.77 " fill="none" id="Edge Hub-IoTHubDeviceAPI" style="stroke: #0000FF; stroke-width: 8.0; stroke-dasharray: 1.0,3.0;"/><polygon fill="#0000FF" points="1336.52,1042.94,1340,1033.7265,1336.2348,1037.9481,1332.0131,1034.1829,1336.52,1042.94" style="stroke: #0000FF; stroke-width: 8.0;"/><polygon fill="#0000FF" points="889.08,486.01,897.2769,491.4699,894.0085,486.8528,898.6255,483.5843,889.08,486.01" style="stroke: #0000FF; stroke-width: 8.0;"/><text fill="#000000" font-family="sans-serif" font-size="13" lengthAdjust="spacingAndGlyphs" textLength="95" x="1333" y="777.5669">AMQPS/MQTTS</text><!--MD5=[c2adef35b98c6204c7ca3794aa84d24c]
link Edge Hub to Workload--><path d="M828.83,496.08 C810.18,514.73 777.73,544.05 744,560 C728.4,567.38 720.73,559.01 706,568 C671.89,588.82 646.16,630.09 634.64,651.09 " fill="none" id="Edge Hub-&gt;Workload" style="stroke: #A80036; stroke-width: 1.0;"/><polygon fill="#A80036" points="632.15,655.72,639.9411,649.6952,634.5222,651.3186,632.8988,645.8996,632.15,655.72" style="stroke: #A80036; stroke-width: 1.0;"/><text fill="#000000" font-family="sans-serif" font-size="13" lengthAdjust="spacingAndGlyphs" textLength="65" x="707" y="581.0669">HTTP/UDS</text><!--MD5=[e7c1fb3ade31e9ab3c66680e943d8cf2]
link Edge Hub to DeviceScopeSyncAPI--><path d="M894.58,482.05 C1048.98,492.91 1511,536.06 1511,664 C1511,664 1511,664 1511,908 C1511,955.83 1514.96,1012.56 1516.92,1037.78 " fill="none" id="Edge Hub-DeviceScopeSyncAPI" style="stroke: #0000FF; stroke-width: 8.0; stroke-dasharray: 1.0,3.0;"/><polygon fill="#0000FF" points="1517.33,1042.94,1520.5974,1033.6489,1516.9301,1037.956,1512.6231,1034.2887,1517.33,1042.94" style="stroke: #0000FF; stroke-width: 8.0;"/><polygon fill="#0000FF" points="889.21,481.68,897.9144,486.288,894.1982,482.023,898.4632,478.3069,889.21,481.68" style="stroke: #0000FF; stroke-width: 8.0;"/><text fill="#000000" font-family="sans-serif" font-size="13" lengthAdjust="spacingAndGlyphs" textLength="41" x="1512" y="777.5669">HTTPS</text><!--MD5=[e9adedd65f0a677a3f876f1ef53cf351]
link MSDK to EdgeHubDeviceAPI--><path d="M876.2,217.19 C887.98,256.22 909.23,326.66 918.02,355.82 " fill="none" id="MSDK-&gt;EdgeHubDeviceAPI" style="stroke: #A80036; stroke-width: 1.0;"/><polygon fill="#A80036" points="919.51,360.76,920.7418,350.9885,918.0667,355.9728,913.0823,353.2977,919.51,360.76" style="stroke: #A80036; stroke-width: 1.0;"/><text fill="#000000" font-family="sans-serif" font-size="13" lengthAdjust="spacingAndGlyphs" textLength="150" x="897" y="286.0669">[AMQPS|HTTPS|MQTTS]</text><!--MD5=[d27579ff5fceeba2cbbdb191027a75ea]
link DSDK to EdgeHubDeviceAPI--><path d="M1187.95,219.77 C1112.58,262.06 978.85,337.1 935.78,361.27 " fill="none" id="DSDK-EdgeHubDeviceAPI" style="stroke: #0000FF; stroke-width: 8.0; stroke-dasharray: 1.0,3.0;"/><polygon fill="#0000FF" points="931.21,363.83,941.0142,362.8933,935.5652,361.3739,937.0845,355.9249,931.21,363.83" style="stroke: #0000FF; stroke-width: 8.0;"/><polygon fill="#0000FF" points="1192.55,217.19,1182.7458,218.1267,1188.1948,219.6461,1186.6755,225.0951,1192.55,217.19" style="stroke: #0000FF; stroke-width: 8.0;"/><text fill="#000000" font-family="sans-serif" font-size="13" lengthAdjust="spacingAndGlyphs" textLength="105" x="1092" y="286.0669">[AMQPS|MQTTS]</text><!--MD5=[e428078068635555d3e8c86edca1257d]
@startuml

skinparam rectangle {
    roundCorner<<execution environment>> 25
	LineThickness<<security boundary>> 1
	LineColor<<security boundary>> black
}

cloud Azure #line:blue;line.bold;text:black {
	IoTHubDeviceAPI - - [Azure IoT Hub]
	DeviceScopeSyncAPI - - [Azure IoT Hub]
	ProvisioningAPI - - [DPS]
}

frame "Edge Device" as EdgeDevice {
	OCI - - [Container Engine]
	P11 - - [TPM/HSM]

	package "Edge Native Processes" as NativeProcesses #line:red;line.bold;text:black {
		package IoTIdentityService {
			IS - [Identity Service]
			CS - [Certificate Service]
			KS - [Keys Service]
			TS - [TPM Service]
		}

		Management - - [Edge Daemon]
		Workload - - [Edge Daemon]
	}

	rectangle "OCI Containers" as OCIContainers #line:darkgreen;line.bold;text:black {
		package "Edge Containers" as EdgeContainers #line:red;line.bold;text:black {
			EdgeAgentMetrics - - [Edge Agent]

			EdgeHubDeviceAPI - - [Edge Hub]
			EdgeHubMetrics - - [Edge Hub]
			EdgeDeviceScopeSync - - [Edge Hub]
		}

		package "User Container" as UserContainer #palegreen;line:green;line.bold;text:black {
			package "Azure IoT Device SDK" as MSDK #palegreen;line:green;line.bold;text:black {
			}
		}
	}
}

frame "Child Device" as ChildDevice {
	package "Application" #palegreen;line:green;line.bold;text:black {
		package "Azure IoT Device SDK" as DSDK #palegreen;line:green;line.bold;text:black {
		}
	}
}

[Identity Service] - -> [CS] : HTTP/UDS
[Identity Service] - -> [KS] : HTTP/UDS
[Identity Service] - -> [TS] : HTTP/UDS
[Identity Service] <.[#blue,dotted,thickness=8]do.> ProvisioningAPI : HTTPS

[Certificate Service] - -> [KS] : HTTP/UDS
[TPM Service] - -> [P11] : PKCS #11
[Keys Service] - -> [P11] : PKCS #11

[Edge Daemon] - -> IS : HTTP/UDS
[Edge Daemon] - -> CS : HTTP/UDS
[Edge Daemon] - -> KS : HTTP/UDS
[Edge Daemon] -up-> OCI : HTTP/UDS

[Container Engine] -up-> OCIContainers

[Edge Agent] - -> Workload : HTTP/UDS
[Edge Agent] - -> Management : HTTP/UDS

[Edge Agent] <.[#blue,dotted,thickness=8]do.> IoTHubDeviceAPI : AMQPS/MQTTS
[Edge Hub] <.[#blue,dotted,thickness=8]do.> IoTHubDeviceAPI : AMQPS/MQTTS

[Edge Hub] - -> Workload : HTTP/UDS
[Edge Hub] <.[#blue,dotted,thickness=8]do.> DeviceScopeSyncAPI : HTTPS

MSDK - -> EdgeHubDeviceAPI : [AMQPS|HTTPS|MQTTS]
DSDK <.[#blue,dotted,thickness=8]do.> EdgeHubDeviceAPI : [AMQPS|MQTTS]

@enduml

PlantUML version 1.2020.09(Sun May 10 03:51:06 PDT 2020)
(GPL source distribution)
Java Runtime: OpenJDK Runtime Environment
JVM: OpenJDK 64-Bit Server VM
Java Version: 14.0.2+12-Ubuntu-120.04
Operating System: Linux
Default Encoding: UTF-8
Language: en
Country: null
--></g></svg>